<svg width="12" height="14" viewBox="0 0 12 14" xmlns="http://www.w3.org/2000/svg">
<path d="M4.66667 0.333374C5.03467 0.333374 5.33333 0.632041 5.33333 1.00004V3.66671C5.33333 4.03471 5.03467 4.33337 4.66667 4.33337H3.33333V5.66671H6.66667V5.00004C6.66667 4.63204 6.96533 4.33337 7.33333 4.33337H11.3333C11.7013 4.33337 12 4.63204 12 5.00004V7.66671C12 8.03471 11.7013 8.33337 11.3333 8.33337H7.33333C6.96533 8.33337 6.66667 8.03471 6.66667 7.66671V7.00004H3.33333V11H6.66667V10.3334C6.66667 9.96537 6.96533 9.66671 7.33333 9.66671H11.3333C11.7013 9.66671 12 9.96537 12 10.3334V13C12 13.368 11.7013 13.6667 11.3333 13.6667H7.33333C6.96533 13.6667 6.66667 13.368 6.66667 13V12.3334H2.66667C2.29867 12.3334 2 12.0347 2 11.6667V4.33337H0.666667C0.298667 4.33337 0 4.03471 0 3.66671V1.00004C0 0.632041 0.298667 0.333374 0.666667 0.333374H4.66667ZM10.6667 11H8V12.3334H10.6667V11ZM10.6667 5.66671H8V7.00004H10.6667V5.66671ZM4 1.66671H1.33333V3.00004H4V1.66671Z" />
</svg>
