<svg width="13" height="14" viewBox="0 0 13 14" xmlns="http://www.w3.org/2000/svg">
<path d="M8.88487 4.1713L5.11421 7.94263C5.05053 8.00413 4.99975 8.07769 4.96481 8.15903C4.92987 8.24037 4.91148 8.32785 4.91071 8.41636C4.90994 8.50488 4.92681 8.59267 4.96033 8.6746C4.99385 8.75653 5.04335 8.83097 5.10594 8.89356C5.16854 8.95616 5.24297 9.00566 5.3249 9.03918C5.40684 9.0727 5.49462 9.08957 5.58314 9.0888C5.67166 9.08803 5.75914 9.06964 5.84048 9.0347C5.92181 8.99976 5.99538 8.94897 6.05687 8.8853L9.82821 5.11463C10.2033 4.73953 10.414 4.23078 10.414 3.7003C10.414 3.16982 10.2033 2.66107 9.82821 2.28597C9.4531 1.91086 8.94435 1.70013 8.41387 1.70013C7.8834 1.70013 7.37465 1.91086 6.99954 2.28597L3.22821 6.0573C2.91226 6.36538 2.66063 6.73314 2.48791 7.13923C2.3152 7.54532 2.22484 7.98167 2.22207 8.42295C2.21931 8.86424 2.30419 9.30168 2.47181 9.7099C2.63942 10.1181 2.88642 10.489 3.19848 10.801C3.51055 11.113 3.88146 11.36 4.28971 11.5276C4.69796 11.6951 5.13541 11.7799 5.5767 11.7771C6.01798 11.7743 6.45431 11.6839 6.86038 11.5111C7.26645 11.3383 7.63417 11.0866 7.94221 10.7706L11.7135 6.99997L12.6562 7.94263L8.88487 11.714C8.45151 12.1473 7.93704 12.4911 7.37082 12.7256C6.80461 12.9602 6.19774 13.0809 5.58487 13.0809C4.97201 13.0809 4.36514 12.9602 3.79893 12.7256C3.23271 12.4911 2.71824 12.1473 2.28487 11.714C1.85151 11.2806 1.50775 10.7661 1.27322 10.1999C1.03868 9.6337 0.917969 9.02683 0.917969 8.41397C0.917969 7.8011 1.03868 7.19423 1.27322 6.62802C1.50775 6.0618 1.85151 5.54733 2.28487 5.11397L6.05687 1.3433C6.68555 0.736105 7.52756 0.400124 8.40154 0.407719C9.27553 0.415314 10.1116 0.765877 10.7296 1.3839C11.3476 2.00193 11.6982 2.83797 11.7058 3.71196C11.7134 4.58595 11.3774 5.42796 10.7702 6.05663L6.99954 9.8293C6.81376 10.015 6.59322 10.1624 6.35051 10.2629C6.1078 10.3634 5.84767 10.4151 5.58497 10.415C5.32227 10.415 5.06216 10.3632 4.81947 10.2627C4.57678 10.1621 4.35627 10.0147 4.17054 9.82897C3.98481 9.64319 3.83748 9.42265 3.73698 9.17994C3.63648 8.93722 3.58477 8.67709 3.5848 8.4144C3.58483 8.1517 3.63661 7.89158 3.73716 7.64889C3.83772 7.4062 3.9851 7.1857 4.17087 6.99997L7.94221 3.22863L8.88487 4.1713Z" />
</svg>
