<svg width="14" height="14" viewBox="0 0 14 14" xmlns="http://www.w3.org/2000/svg">
<path d="M3.86035 12.8827L0.333015 13.6667L1.11702 10.1394C0.600703 9.17363 0.331367 8.09514 0.333015 7.00004C0.333015 3.31804 3.31768 0.333374 6.99968 0.333374C10.6817 0.333374 13.6663 3.31804 13.6663 7.00004C13.6663 10.682 10.6817 13.6667 6.99968 13.6667C5.90458 13.6684 4.82609 13.399 3.86035 12.8827ZM4.05368 11.474L4.48902 11.7074C5.26138 12.1201 6.12394 12.3352 6.99968 12.3334C8.05452 12.3334 9.08566 12.0206 9.96272 11.4345C10.8398 10.8485 11.5234 10.0156 11.927 9.04102C12.3307 8.06648 12.4363 6.99412 12.2305 5.95956C12.0247 4.92499 11.5168 3.97468 10.7709 3.2288C10.025 2.48292 9.07473 1.97497 8.04016 1.76919C7.0056 1.5634 5.93324 1.66902 4.9587 2.07268C3.98416 2.47635 3.15121 3.15994 2.56518 4.037C1.97914 4.91406 1.66635 5.94521 1.66635 7.00004C1.66635 7.88937 1.88302 8.74537 2.29302 9.51071L2.52568 9.94604L2.08902 11.9107L4.05368 11.474Z" />
</svg>
